<?xml version="1.0" standalone="no"?>
<!DOCTYPE svg PUBLIC "-//W3C//DTD SVG 20010904//EN"
 "http://www.w3.org/TR/2001/REC-SVG-20010904/DTD/svg10.dtd">
<svg version="1.0" xmlns="http://www.w3.org/2000/svg"
 width="300.000000pt" height="300.000000pt" viewBox="0 0 300.000000 300.000000"
 preserveAspectRatio="xMidYMid meet">
<metadata>
Created by potrace 1.14, written by Peter Selinger 2001-2017
</metadata>
<g transform="translate(0.000000,300.000000) scale(0.100000,-0.100000)"
fill="#000000" stroke="none">
<path d="M1536 2885 c-3 -9 -6 -27 -6 -40 0 -18 -7 -25 -30 -30 -37 -8 -48
-27 -46 -83 1 -29 -3 -41 -11 -38 -7 3 -15 1 -18 -4 -4 -6 -11 -10 -16 -10 -6
0 1 15 15 33 15 19 26 37 26 40 0 4 -16 7 -35 7 -19 0 -35 -4 -35 -10 0 -5 -5
-10 -11 -10 -5 0 -7 4 -4 10 10 16 -59 -1 -71 -18 -6 -8 -21 -12 -35 -10 l-24
4 28 12 c29 12 36 39 15 60 -30 30 -98 -1 -98 -44 0 -27 43 -74 63 -70 25 6
65 25 72 35 3 6 11 11 16 11 6 0 -3 -12 -20 -27 -29 -27 -35 -41 -32 -75 2
-29 40 -57 72 -53 41 5 69 15 69 25 0 5 13 7 29 5 25 -3 29 -1 24 13 -6 15 -5
15 10 3 11 -8 17 -9 17 -3 0 6 9 16 20 22 20 10 20 10 8 -12 -7 -12 -20 -28
-28 -35 -13 -11 -12 -12 6 -13 56 -1 138 60 114 84 -18 18 -10 26 16 16 59
-23 114 5 114 58 l-1 27 -14 -32 c-7 -17 -24 -37 -36 -43 l-22 -13 21 27 c17
23 19 32 10 57 -18 51 -89 51 -96 0 -3 -18 1 -22 15 -19 11 2 17 11 15 22 -3
14 1 17 13 12 9 -3 19 -6 21 -6 2 0 4 -6 4 -14 0 -8 -14 -22 -31 -30 -30 -15
-33 -15 -58 7 -26 21 -27 25 -16 57 14 41 9 73 -15 95 -16 15 -18 15 -24 0z
m-276 -115 c0 -5 -9 -6 -20 -3 -16 4 -20 1 -18 -17 3 -27 -17 -38 -26 -15 -7
20 29 56 49 49 8 -4 15 -10 15 -14z m311 -40 l24 -21 -32 16 c-32 15 -42 25
-24 25 5 0 19 -9 32 -20z m-81 -20 c-6 -11 -14 -20 -17 -20 -3 0 -3 3 0 7 4 3
2 12 -4 20 -9 10 -7 13 10 13 19 0 20 -3 11 -20z m70 -11 c0 -4 -6 -12 -14
-18 -12 -10 -13 -8 -9 8 4 15 1 21 -11 21 -10 0 -14 4 -11 10 6 10 45 -8 45
-21z m-160 17 c0 -2 -12 -11 -27 -20 l-28 -17 24 20 c23 21 31 25 31 17z m-3
-66 c-3 -11 -1 -20 4 -20 5 0 9 -4 9 -10 0 -16 -47 -11 -54 6 -3 8 -2 12 4 9
5 -3 15 3 22 15 16 25 22 26 15 0z m73 2 c0 -4 -9 -8 -19 -8 -11 0 -17 4 -15
8 3 4 12 8 20 8 8 0 14 -4 14 -8z"/>
<path d="M1305 2843 c-30 -7 -42 -23 -18 -23 12 0 28 -6 35 -12 7 -7 20 -15
28 -17 51 -13 57 -12 63 8 10 41 -38 61 -108 44z"/>
<path d="M992 2803 c1 -5 -2 -23 -6 -41 -5 -23 -12 -32 -22 -28 -16 6 -20 -39
-4 -49 14 -9 12 -26 -2 -23 -7 1 -25 -1 -40 -5 -25 -7 -26 -10 -26 -69 1 -66
9 -81 52 -98 18 -7 29 -6 38 4 7 7 19 11 26 8 6 -2 12 3 12 12 0 9 7 16 15 16
8 0 14 3 14 8 -6 34 6 66 35 96 18 20 30 39 27 42 -3 4 -1 4 6 1 6 -4 13 -3
15 2 5 13 98 -20 98 -35 0 -8 5 -14 10 -14 17 0 11 30 -7 37 -10 4 -23 12 -30
17 -7 6 -19 17 -28 24 -10 8 -13 21 -10 33 4 11 2 19 -5 19 -17 0 -23 -29 -10
-45 10 -13 8 -15 -14 -15 -20 0 -26 5 -26 21 0 14 -5 19 -14 16 -8 -3 -17 1
-20 10 -4 8 -13 13 -21 9 -10 -3 -20 5 -30 24 -14 26 -38 43 -33 23z m55 -139
c6 3 16 -1 23 -8 8 -11 3 -18 -22 -34 -18 -12 -37 -17 -41 -13 -16 16 -49 0
-44 -20 7 -25 -7 -33 -33 -19 -29 15 -25 32 14 58 24 17 44 22 65 19 18 -3 29
-1 25 4 -3 5 -10 9 -16 9 -16 0 -48 31 -48 46 0 7 15 0 32 -17 18 -16 38 -27
45 -25z"/>
<path d="M1894 2744 c-12 -8 -35 -16 -52 -18 -16 -3 -40 -9 -51 -16 -12 -6
-21 -8 -21 -4 0 3 -7 1 -16 -6 -8 -8 -14 -25 -12 -39 2 -22 9 -27 37 -29 19
-2 44 1 55 6 35 17 56 22 56 13 0 -5 -25 -16 -56 -26 -43 -13 -61 -15 -80 -6
-17 8 -24 8 -24 0 0 -8 -5 -7 -15 1 -8 7 -12 16 -9 21 3 5 -2 9 -10 9 -26 0
-18 -34 15 -66 l31 -29 -7 28 c-8 32 -8 32 38 12 20 -8 50 -15 66 -15 18 0 35
-8 43 -19 20 -28 75 -34 99 -10 17 17 23 16 20 -3 0 -4 12 -21 28 -39 27 -29
33 -31 73 -26 27 4 49 14 60 27 23 29 23 36 -7 65 -13 14 -19 25 -13 25 6 0 8
3 5 7 -4 4 5 19 20 35 15 15 22 28 15 28 -6 0 -14 -4 -17 -10 -4 -6 -13 -5
-24 2 -11 7 -26 8 -37 3 -11 -5 -21 -9 -24 -9 -3 -1 -17 -10 -32 -20 -26 -17
-28 -17 -50 4 -21 20 -22 22 -5 31 18 11 23 44 7 54 -5 3 -10 -1 -10 -9 0 -19
-13 -27 -53 -33 -18 -3 -40 -9 -49 -14 -30 -16 -29 -10 3 30 34 44 36 67 3 45z
m-69 -74 c-3 -5 -12 -10 -18 -10 -7 0 -6 4 3 10 19 12 23 12 15 0z m115 -4 c0
-2 -7 -7 -16 -10 -8 -3 -12 -2 -9 4 6 10 25 14 25 6z m30 0 c0 -3 -4 -8 -10
-11 -5 -3 -10 -1 -10 4 0 6 5 11 10 11 6 0 10 -2 10 -4z m-77 -62 c-19 -14
-83 -19 -83 -6 0 4 12 9 27 10 15 1 31 6 36 11 5 5 16 7 24 4 11 -4 10 -8 -4
-19z m74 0 c24 -52 -31 -83 -57 -33 -9 16 -6 17 27 12 35 -6 37 -5 24 10 -7
10 -20 17 -28 17 -8 0 -11 5 -8 10 11 18 30 11 42 -16z m73 -9 c0 -17 45 -21
55 -5 3 6 11 10 17 10 6 0 -1 -9 -16 -21 -32 -25 -34 -42 -3 -37 12 2 21 9 20
16 -4 15 9 16 25 0 19 -19 14 -46 -10 -59 -13 -7 -24 -12 -26 -11 -1 1 -16 9
-32 17 -29 15 -70 75 -51 75 6 0 8 7 5 15 -4 8 -1 15 5 15 6 0 11 -7 11 -15z"/>
<path d="M1116 2639 c-25 -30 -34 -51 -18 -47 4 1 19 -6 35 -16 25 -17 29 -17
53 -2 14 10 28 24 31 32 8 23 -21 47 -46 39 -28 -8 -29 -39 -1 -32 11 3 20 2
20 -3 0 -15 -27 -30 -43 -24 -28 10 -27 33 4 59 26 21 28 25 11 25 -11 0 -32
-14 -46 -31z"/>
<path d="M1650 2651 c0 -5 -10 -25 -22 -45 l-23 -35 -95 -1 c-343 -3 -639
-120 -867 -345 -46 -44 -83 -75 -83 -68 0 13 -50 43 -71 43 -8 0 -6 -7 4 -18
10 -10 17 -22 17 -27 0 -5 7 -16 15 -25 13 -14 11 -22 -22 -70 -49 -73 -119
-222 -138 -295 -60 -233 -45 -454 49 -675 5 -11 -1 -15 -24 -16 -30 -1 -60
-19 -60 -36 0 -5 8 -5 18 1 10 5 24 6 31 2 7 -4 22 -6 34 -4 18 3 31 -11 75
-81 164 -263 462 -459 790 -517 39 -7 72 -17 72 -21 0 -4 -4 -8 -10 -8 -5 0
-8 -18 -6 -40 3 -31 -1 -47 -19 -68 -34 -41 -38 -65 -15 -90 35 -37 90 -24 90
21 0 12 -6 17 -17 15 -10 -2 -18 -9 -18 -16 0 -6 -3 -12 -7 -12 -5 0 -12 0
-18 0 -22 0 -8 31 18 42 31 13 61 17 60 9 -2 -22 5 -31 25 -32 12 0 16 -3 10
-6 -7 -2 -13 -13 -13 -23 0 -10 -4 -21 -9 -25 -13 -7 -6 -41 14 -72 19 -29 22
-27 35 16 6 22 5 31 -3 32 -7 0 5 6 27 12 49 15 65 48 36 77 -11 11 -20 26
-20 33 1 6 9 2 19 -10 18 -22 19 -22 24 -3 3 11 1 20 -5 20 -5 0 -6 5 -2 11 4
8 9 7 15 -2 4 -7 11 -10 15 -6 4 4 0 15 -9 25 -20 22 -22 32 -5 32 6 0 8 -3 5
-7 -7 -7 11 -33 23 -33 4 0 10 11 12 25 3 14 1 25 -3 25 -5 0 -9 5 -9 10 0 6
11 10 25 10 28 0 32 -12 10 -30 -8 -7 -15 -18 -15 -24 0 -6 -11 -23 -24 -38
-14 -14 -22 -29 -19 -32 4 -3 1 -6 -5 -6 -23 0 -12 -18 14 -23 17 -3 32 2 45
16 10 11 22 17 26 14 3 -4 1 -7 -5 -7 -7 0 -12 -4 -12 -10 0 -14 63 0 73 17
10 17 95 13 102 -5 7 -18 -31 -53 -50 -46 -8 4 -15 10 -15 15 0 4 6 6 14 3 22
-9 29 14 7 25 -15 8 -24 7 -40 -7 -20 -16 -21 -19 -6 -39 33 -46 105 -18 105
40 0 20 -9 33 -31 46 -34 21 -60 16 -104 -18 -19 -15 -19 -15 -5 4 8 11 21 25
29 31 38 30 -6 114 -57 109 -39 -3 -72 -15 -72 -26 0 -6 -4 -8 -9 -4 -5 3 -13
0 -17 -7 -5 -8 -10 -6 -15 8 -7 17 -8 17 -8 1 -1 -10 -7 -17 -15 -15 -8 2 -22
-6 -31 -17 -16 -20 -16 -19 -9 5 4 14 14 30 23 37 15 11 15 12 0 13 -58 1
-140 -60 -118 -87 16 -18 9 -23 -18 -12 -25 9 -22 38 8 65 10 9 19 22 19 29 0
8 43 14 148 18 213 9 338 40 517 127 116 56 235 142 319 230 36 38 62 57 66
50 9 -15 80 -52 80 -41 0 5 -7 14 -15 21 -8 7 -15 17 -15 23 0 6 -6 18 -14 26
-13 14 -9 25 33 91 102 162 148 305 158 491 8 165 -17 307 -81 460 -6 13 -2
16 17 12 16 -3 33 4 53 21 l29 26 -26 -9 c-14 -5 -31 -6 -38 -2 -7 5 -22 6
-35 4 -19 -4 -29 6 -62 63 -114 195 -334 379 -558 465 -105 40 -245 76 -306
78 -19 1 -22 3 -10 11 16 10 24 76 9 85 -5 4 -9 2 -9 -4z m105 -145 c346 -80
624 -286 769 -573 254 -500 40 -1089 -494 -1354 -167 -83 -336 -121 -540 -121
-306 1 -602 120 -812 326 -132 130 -221 276 -274 452 -25 81 -27 104 -28 254
0 139 4 177 22 245 27 99 98 249 157 329 193 269 542 454 875 465 41 1 76 3
77 5 6 6 188 -15 248 -28z m-295 -2211 c-9 -11 -6 -14 12 -17 14 -2 18 -6 12
-10 -17 -11 -46 15 -38 35 3 9 10 14 16 11 5 -3 5 -11 -2 -19z m190 11 c0 -2
-8 -10 -17 -17 -16 -13 -17 -12 -4 4 13 16 21 21 21 13z m-194 -51 c18 -13 18
-14 -4 -8 -12 3 -25 9 -28 14 -8 14 10 11 32 -6z"/>
<path d="M1315 2506 c-358 -57 -676 -280 -828 -581 -338 -672 191 -1443 997
-1454 537 -8 1012 346 1111 827 33 160 26 318 -21 472 -50 163 -123 283 -249
411 -156 159 -350 263 -587 315 -94 21 -319 26 -423 10z m397 -22 c156 -30
308 -91 446 -180 82 -53 249 -227 298 -310 96 -164 137 -306 138 -484 1 -184
-20 -283 -95 -433 -51 -102 -87 -154 -168 -240 -339 -361 -911 -454 -1364
-223 -502 257 -704 823 -465 1301 151 301 464 522 814 574 90 14 314 11 396
-5z"/>
<path d="M1113 2165 c-96 -29 -193 -108 -229 -184 -32 -66 -13 -179 39 -243
33 -41 141 -61 201 -38 32 12 32 6 5 -62 -12 -29 -39 -100 -59 -158 l-38 -105
-34 -1 c-75 -4 -128 -50 -136 -120 -7 -64 17 -107 75 -135 54 -26 100 -21 148
15 33 25 35 29 140 320 l21 59 43 -104 c24 -57 64 -149 90 -204 43 -91 46
-102 32 -116 -28 -29 -230 -157 -304 -194 -189 -92 -347 -60 -449 91 -44 65
-47 90 -15 144 17 31 20 43 11 57 -16 25 -42 28 -66 6 -16 -15 -19 -27 -16
-69 5 -63 54 -167 103 -217 105 -110 289 -126 460 -40 65 33 171 104 215 144
94 87 88 83 102 67 7 -8 28 -30 46 -50 l33 -35 -88 -75 c-132 -111 -199 -158
-293 -205 -61 -30 -80 -44 -67 -48 38 -15 213 89 372 222 39 32 78 64 87 71
15 12 21 11 45 -6 44 -30 124 -69 173 -82 142 -40 310 -32 408 19 180 94 223
336 84 476 -64 64 -140 94 -265 104 -5 1 -6 4 -4 9 3 4 8 39 11 77 4 39 9 77
11 85 2 8 7 42 10 75 11 97 19 164 34 275 10 78 19 144 20 163 1 4 10 7 21 7
11 0 20 5 20 10 0 17 -83 11 -128 -10 -59 -27 -93 -65 -259 -297 -80 -112
-147 -203 -148 -203 -2 0 -45 98 -95 218 -107 253 -115 266 -149 282 -38 18
-169 21 -218 5z m106 -42 c7 -16 35 -81 61 -145 l48 -117 -17 -46 -17 -46 -28
70 c-42 106 -86 139 -162 119 -63 -16 -95 -97 -55 -137 35 -35 74 -24 83 23 2
13 -8 27 -31 43 l-34 23 37 15 c31 13 40 13 70 1 53 -22 61 -67 25 -137 -40
-79 -160 -101 -237 -43 -142 109 -44 318 183 389 57 19 60 18 74 -12z m697
-70 c-5 -21 -13 -74 -21 -153 -4 -30 -8 -66 -10 -80 -2 -14 -7 -47 -10 -75 -3
-27 -7 -66 -10 -85 -2 -19 -7 -60 -11 -90 -4 -30 -8 -64 -10 -75 -1 -11 -3
-31 -3 -45 -1 -17 -11 -31 -30 -43 -40 -23 -43 -22 -37 16 3 17 12 84 21 147
22 165 24 179 31 240 l7 55 -158 -215 c-86 -118 -169 -230 -182 -248 l-25 -34
-35 79 c-19 43 -54 126 -78 185 l-44 108 17 41 18 42 70 -161 c38 -89 71 -162
74 -162 3 0 97 128 210 285 113 156 209 284 213 284 5 1 6 -7 3 -16z m-706
-446 l23 -59 -38 -115 c-44 -133 -93 -239 -127 -270 -57 -53 -154 -25 -172 50
-19 73 42 136 118 124 l34 -5 52 151 c71 205 70 201 79 191 4 -5 18 -35 31
-67z m424 -104 c-3 -32 -7 -69 -9 -83 -2 -14 -6 -54 -10 -90 l-7 -65 -82 -67
-83 -67 -22 45 -21 45 117 169 c65 93 119 169 121 170 2 0 0 -26 -4 -57z m501
-94 c57 -27 123 -94 151 -154 56 -122 -15 -285 -152 -350 -124 -59 -361 -31
-503 59 l-53 33 47 38 c40 33 55 39 106 43 60 4 72 13 42 31 -25 14 -5 33 69
66 69 31 175 44 221 26 15 -6 34 -25 43 -44 15 -32 15 -37 -1 -71 -9 -20 -21
-36 -26 -36 -5 0 -6 -7 -3 -15 14 -36 74 36 74 89 0 124 -171 159 -342 69 -29
-15 -56 -29 -60 -31 -7 -3 -1 124 7 164 6 27 75 71 75 49 0 -17 -35 -55 -50
-55 -5 0 -7 -7 -4 -15 5 -12 29 -15 125 -15 126 0 140 6 94 42 -35 27 -36 94
-2 101 36 7 98 -3 142 -24z m-536 -238 c-4 -20 -17 -43 -29 -53 -30 -25 -24
-37 20 -40 l40 -3 -35 -28 -36 -29 -48 45 c-27 25 -46 49 -42 54 3 4 31 28 61
53 30 25 57 49 59 54 9 22 18 -20 10 -53z"/>
<path d="M730 2611 c0 -13 -7 -21 -16 -21 -12 0 -15 -7 -12 -25 4 -16 1 -25
-8 -25 -9 0 -10 -6 -1 -30 13 -35 11 -38 -33 -46 -22 -5 -31 -4 -26 4 6 11
-19 42 -35 42 -12 0 -12 -17 0 -24 6 -4 5 -21 -1 -42 -5 -20 -11 -46 -14 -57
-5 -27 -14 -35 -14 -12 0 18 -40 85 -50 85 -4 0 -4 -15 -2 -33 2 -20 -2 -40
-10 -48 -11 -12 -14 -35 -9 -91 0 -9 8 -18 17 -20 14 -3 12 -8 -7 -33 -12 -16
-19 -27 -15 -23 5 4 17 3 28 -3 20 -11 78 -3 78 10 0 4 -17 8 -37 9 -21 2 -39
5 -41 6 -2 2 13 20 33 40 25 26 34 42 30 55 -3 11 -1 22 5 26 6 3 8 10 6 14
-3 4 0 13 5 21 7 11 8 3 5 -25 -3 -22 -5 -45 -6 -52 0 -6 -12 -25 -26 -42 -14
-17 -22 -31 -17 -31 17 0 73 40 88 63 9 14 29 27 45 30 39 8 68 52 52 78 -7
10 -8 19 -3 19 6 0 12 -4 15 -9 4 -5 22 -5 43 0 21 4 40 7 43 6 3 -1 14 15 25
35 18 35 19 40 4 65 -12 22 -22 28 -50 28 -41 0 -69 19 -69 46 0 10 -4 21 -10
24 -5 3 -10 -3 -10 -14z m43 -86 c-3 -9 -8 -14 -10 -11 -3 3 -2 9 2 15 9 16
15 13 8 -4z m81 -1 c46 -18 -13 -84 -74 -84 -22 0 -40 4 -40 9 0 5 -7 11 -16
13 -13 3 -13 5 1 23 12 16 14 17 9 3 -7 -22 14 -24 22 -3 5 11 9 12 25 2 16
-10 21 -9 29 3 11 17 3 33 -12 24 -7 -4 -8 -2 -4 4 8 13 35 16 60 6z m-214
-77 c0 -2 -10 -12 -21 -23 -22 -19 -22 -19 -8 4 12 19 29 30 29 19z m46 -39
c5 -7 2 -9 -9 -5 -18 7 -27 -11 -27 -52 0 -17 -10 -37 -26 -52 l-27 -24 17 32
c9 18 16 40 16 51 0 10 3 22 8 26 4 4 8 12 8 17 3 17 4 19 18 19 8 0 18 -5 22
-12z m44 -28 c-6 -12 -21 -20 -36 -20 -23 0 -24 1 -10 16 9 8 16 22 16 30 0
12 4 12 20 4 16 -9 18 -15 10 -30z"/>
<path d="M2225 2523 c-27 -15 -52 -29 -54 -30 -3 -2 -6 -18 -7 -35 -3 -39 30
-75 65 -70 14 2 21 0 17 -7 -4 -6 10 -3 30 5 21 9 53 14 75 11 21 -2 36 0 33
4 -3 5 -15 9 -27 9 -27 1 -61 25 -53 39 12 18 -27 31 -46 15 -15 -14 -17 -13
-23 6 -8 25 23 66 32 43 3 -7 15 -13 29 -13 17 0 29 -10 43 -37 17 -31 20 -33
17 -13 -4 30 17 75 41 89 16 9 16 10 1 11 -9 0 -26 -12 -37 -27 -21 -25 -22
-26 -36 -7 -8 10 -15 22 -15 27 0 14 -36 6 -85 -20z"/>
<path d="M2475 2545 c-5 -2 -27 -6 -47 -10 -31 -5 -38 -11 -48 -40 -12 -38 -6
-70 18 -97 17 -20 37 -25 26 -6 -4 7 -3 8 5 4 6 -4 9 -12 6 -17 -4 -5 -2 -9 3
-9 6 0 15 -14 21 -30 7 -22 7 -29 0 -24 -7 4 -9 -1 -5 -14 5 -15 2 -22 -11
-25 -14 -4 -13 -5 5 -6 22 -1 24 3 27 67 0 13 12 32 25 43 24 18 24 19 4 19
-12 0 -25 -8 -29 -17 -6 -17 -7 -17 -20 1 -12 16 -11 21 8 37 12 10 17 18 12
19 -17 0 -10 66 8 85 24 23 21 30 -8 20z"/>
<path d="M2510 2365 c-13 -13 -20 -31 -17 -39 3 -8 1 -16 -5 -18 -6 -2 6 -15
26 -28 20 -14 36 -29 36 -34 0 -5 -3 -6 -7 -3 -3 4 -13 1 -22 -6 -14 -11 -15
-10 -1 7 14 18 13 19 -15 12 -38 -10 -70 -39 -72 -68 -2 -26 52 -82 72 -74 10
3 12 0 8 -11 -5 -12 -3 -14 7 -8 10 6 12 4 7 -8 -10 -26 11 -20 38 11 13 15
25 24 25 21 0 -3 -9 -16 -20 -29 -25 -29 -25 -40 -1 -33 10 3 22 -1 26 -7 6
-9 -3 -11 -32 -9 -47 5 -47 -7 -3 -40 41 -30 83 -37 103 -17 15 16 17 15 23
-11 10 -40 33 -63 65 -63 34 0 59 9 59 21 0 6 -7 6 -17 1 -20 -11 -63 -6 -77
8 -5 5 0 7 12 3 73 -19 124 64 61 97 -27 15 -65 -5 -48 -26 8 -10 15 -11 24
-4 17 14 32 -7 17 -22 -7 -7 -20 -6 -41 3 -33 15 -46 34 -31 44 6 4 10 16 10
27 0 12 3 19 6 16 9 -9 75 12 94 30 43 42 30 63 -25 42 -24 -9 -25 -13 -14
-28 7 -9 -1 -2 -19 16 -31 32 -39 35 -77 33 -13 -1 -26 10 -37 29 -11 19 -22
28 -31 24 -8 -3 -18 -1 -22 5 -4 7 0 8 11 4 17 -6 17 -5 1 18 -10 13 -27 24
-40 24 -16 0 -25 9 -33 33 -5 18 -13 29 -17 26 -4 -4 -7 -2 -7 4 0 6 9 16 20
22 32 17 80 -16 50 -35 -6 -4 -9 -1 -8 7 2 7 -4 13 -12 13 -23 0 -24 -32 -1
-45 29 -15 61 3 61 35 0 47 -75 67 -110 30z m132 -196 c18 -12 25 -19 16 -16
-10 4 -20 2 -23 -3 -4 -6 -13 -7 -23 -1 -9 4 -23 6 -31 3 -8 -3 -11 0 -7 7 4
6 19 9 34 5 26 -5 26 -5 8 10 -28 23 -12 20 26 -5z m-88 -11 c-3 -4 -11 -8
-19 -8 -7 0 -16 -6 -18 -12 -4 -10 -8 -9 -16 2 -17 24 -13 28 23 27 19 0 33
-5 30 -9z m56 -28 c0 -5 -2 -10 -4 -10 -3 0 -8 5 -11 10 -3 6 -1 10 4 10 6 0
11 -4 11 -10z m50 -11 c0 -5 -9 -9 -20 -9 -17 0 -19 2 -8 14 13 14 28 12 28
-5z m-7 -56 c7 3 11 10 10 16 -2 6 2 11 7 11 12 0 13 -10 1 -29 -12 -18 -48
-5 -62 22 -11 21 -11 21 11 -1 12 -13 27 -21 33 -19z m50 18 c2 -10 1 -25 -4
-32 -6 -10 -9 -4 -9 19 0 36 5 42 13 13z"/>
<path d="M2340 2365 c8 -9 8 -15 0 -20 -27 -17 7 -67 45 -67 15 0 33 6 42 14
13 13 12 17 -2 32 -10 9 -14 20 -10 24 3 4 13 -2 21 -12 12 -17 14 -17 14 -3
0 21 -29 36 -80 41 -33 3 -39 2 -30 -9z m48 -32 c-9 -11 -9 -16 3 -24 11 -7 9
-9 -9 -9 -12 0 -25 7 -28 15 -8 20 13 45 32 38 12 -4 12 -8 2 -20z"/>
<path d="M2647 2307 c5 -74 14 -97 38 -97 19 0 38 36 30 59 -6 19 -29 47 -56
68 -14 11 -15 7 -12 -30z"/>
<path d="M442 2306 c21 -15 42 -66 28 -66 -6 0 -10 6 -10 14 0 16 -42 46 -64
46 -7 0 -24 -8 -36 -18 -29 -23 -22 -72 10 -72 24 0 26 18 3 35 -15 11 -15 13
6 20 29 9 39 -5 33 -45 -4 -30 -52 -80 -75 -80 -12 1 0 11 40 37 17 11 17 12
-4 12 -13 1 -23 -4 -23 -10 0 -6 -18 5 -40 25 -30 27 -49 36 -75 36 -42 0 -44
-12 -6 -40 23 -18 27 -28 24 -55 -3 -28 1 -37 22 -51 20 -13 28 -14 40 -4 8 6
20 10 27 7 8 -4 5 -8 -8 -12 -20 -6 -21 -8 -7 -36 8 -17 13 -33 10 -36 -3 -2
-13 9 -21 25 -22 43 -34 47 -56 20 -18 -22 -18 -24 -2 -37 15 -12 15 -13 1 -8
-20 7 -47 -42 -29 -53 14 -9 3 -36 -28 -67 l-26 -26 -18 23 c-14 17 -16 26 -7
36 6 8 17 14 23 14 6 0 4 -5 -4 -10 -12 -7 -12 -12 -3 -21 9 -9 16 -9 28 1 19
16 19 34 0 54 -20 20 -63 2 -71 -30 -12 -48 32 -83 84 -68 15 4 30 7 34 6 8
-2 10 8 11 60 1 29 17 28 17 -1 0 -28 61 -54 102 -43 18 4 33 12 34 18 0 5 4
17 8 27 5 9 6 25 4 35 -3 10 1 23 8 30 9 8 12 29 10 60 -3 26 -2 39 1 30 2
-10 9 -18 14 -18 5 0 9 -10 9 -22 0 -16 3 -19 11 -11 16 16 29 86 19 99 -6 6
-7 13 -4 17 9 9 -35 29 -49 21 -6 -3 3 8 21 25 18 19 32 42 32 56 0 24 -35 65
-54 65 -6 0 -3 -6 6 -14z m-36 -193 c-4 -4 -11 -1 -16 7 -16 25 -11 35 7 17 9
-9 13 -20 9 -24z m-36 17 c0 -5 -5 -10 -11 -10 -5 0 -7 5 -4 10 3 6 8 10 11
10 2 0 4 -4 4 -10z m-7 -57 c-7 -2 -13 -12 -13 -20 0 -9 -3 -14 -6 -10 -10 10
4 37 18 36 10 0 10 -2 1 -6z m28 -36 c-10 -9 -11 -8 -5 6 3 10 9 15 12 12 3
-3 0 -11 -7 -18z m-31 -47 c0 -5 9 -10 20 -10 13 0 18 -5 14 -15 -7 -17 -34
-20 -34 -4 0 7 -8 18 -17 25 -17 13 -17 13 0 14 9 0 17 -4 17 -10z"/>
<path d="M174 2082 c-15 -9 -54 -83 -54 -101 0 -10 6 -8 23 7 13 12 27 22 33
22 16 1 54 38 54 53 0 9 6 17 12 19 7 3 -3 5 -22 6 -19 1 -40 -2 -46 -6z"/>
<path d="M2676 1921 c-4 -6 -12 -9 -17 -6 -10 7 -31 -41 -27 -63 2 -10 12 -3
28 19 l25 34 32 -32 c32 -34 34 -46 1 -16 -24 21 -23 6 2 -32 11 -16 20 -26
20 -21 0 5 9 1 20 -9 12 -11 20 -13 20 -6 0 7 5 9 11 5 16 -9 70 -14 93 -7 16
4 13 8 -14 21 -18 9 -35 24 -37 33 -3 9 -12 20 -21 23 -10 4 -28 13 -41 21
-17 9 -30 11 -42 4 -15 -7 -21 -4 -32 17 -9 18 -17 23 -21 15z"/>
<path d="M2673 1837 c3 -25 12 -58 20 -74 11 -21 12 -32 3 -45 -15 -24 14 -72
46 -76 13 -2 28 -8 35 -14 15 -12 49 17 54 46 3 15 13 20 38 20 19 1 36 7 38
14 3 7 -1 10 -10 7 -8 -4 -33 10 -56 30 -52 42 -79 47 -33 6 33 -31 39 -41 22
-41 -5 0 -10 6 -10 13 0 7 -14 21 -31 31 -51 30 -99 77 -99 96 0 11 -5 22 -11
26 -8 5 -10 -7 -6 -39z m127 -140 c0 -3 -7 -8 -16 -11 -11 -4 -15 -2 -11 8 6
15 -22 46 -41 46 -11 0 -42 50 -42 66 0 4 25 -17 55 -48 30 -30 55 -58 55 -61z
m-43 -18 c12 -14 12 -17 -3 -23 -33 -13 -57 27 -32 52 10 10 14 10 17 0 2 -7
10 -20 18 -29z"/>
<path d="M220 1855 c-14 -17 -56 -20 -65 -5 -12 20 -26 10 -15 -10 8 -15 17
-19 31 -15 10 4 19 2 19 -3 0 -18 -26 -31 -48 -25 -13 3 -22 1 -22 -6 0 -7 -4
-9 -10 -6 -5 3 -14 -2 -21 -12 -8 -14 -20 -17 -51 -15 l-40 4 44 -42 c24 -24
35 -37 26 -30 -12 8 -18 9 -18 2 0 -17 39 -34 66 -29 22 4 22 3 9 -17 -31 -44
-19 -64 58 -96 15 -7 27 -17 27 -22 0 -6 6 -5 15 2 8 7 15 10 15 6 0 -4 14 1
31 10 23 11 30 21 26 35 -3 10 0 19 5 19 6 0 4 8 -4 18 -9 9 -14 22 -12 27 2
6 -9 19 -25 29 -33 23 -75 103 -57 110 7 3 7 5 -2 5 -10 1 -10 5 0 21 16 25
32 27 19 3 -6 -12 -4 -30 7 -55 16 -36 32 -50 32 -28 0 6 11 10 25 10 50 0 56
80 6 93 -24 6 -46 -16 -37 -38 7 -20 24 -19 28 3 3 15 5 14 16 -5 11 -19 9
-24 -7 -33 -22 -11 -54 -3 -45 11 3 6 0 17 -7 25 -9 11 -8 19 7 37 10 12 20
23 21 25 0 2 12 -2 25 -9 21 -11 22 -11 9 4 -17 21 -30 21 -53 0 -18 -16 -18
-16 -12 0 8 21 1 22 -16 2z m-8 -160 c3 -23 0 -35 -8 -35 -14 0 -26 -28 -18
-42 3 -5 12 -7 20 -4 21 8 17 -22 -5 -34 -25 -13 -54 -2 -46 18 3 8 1 20 -5
27 -7 9 -3 23 15 48 l24 37 -35 -20 c-20 -10 -43 -16 -53 -12 -12 4 -6 9 20
17 20 5 44 18 53 28 23 22 33 15 38 -28z m48 -65 c6 -11 8 -20 6 -20 -3 0 -10
9 -16 20 -6 11 -8 20 -6 20 3 0 10 -9 16 -20z"/>
<path d="M2810 1619 c-9 -15 -8 -24 1 -35 9 -11 8 -14 -10 -14 -12 0 -21 -6
-21 -14 0 -22 19 -30 35 -16 20 16 19 0 -1 -28 -42 -60 -99 5 -64 74 11 21 18
40 16 42 -9 8 -26 -10 -42 -44 -15 -31 -15 -38 -3 -61 16 -29 62 -53 91 -45
10 2 25 14 33 25 13 18 13 24 -1 46 l-15 26 20 -23 c11 -12 22 -18 26 -13 4 7
15 7 31 1 32 -13 44 -13 44 0 0 6 -7 10 -15 10 -9 0 -14 8 -12 22 1 17 -4 24
-21 26 -12 2 -20 7 -17 12 3 4 -9 13 -27 19 -39 14 -35 15 -48 -10z m55 -37
c-3 -3 -11 0 -18 7 -9 10 -8 11 6 5 10 -3 15 -9 12 -12z"/>
<path d="M156 1488 c-14 -20 -14 -24 1 -47 16 -25 16 -26 -3 -10 -10 9 -26 16
-34 16 -9 0 -28 3 -43 7 -29 7 -38 -8 -11 -18 10 -4 14 -12 10 -22 -4 -11 1
-18 14 -21 11 -3 20 -9 20 -13 0 -5 15 -14 34 -20 31 -10 34 -13 26 -39 -10
-36 6 -65 55 -98 60 -39 85 -64 85 -85 0 -10 5 -18 11 -18 14 0 6 59 -13 98
-10 19 -11 35 -4 54 12 34 -14 78 -47 78 -13 0 -29 6 -36 13 -11 10 -14 9 -18
-1 -5 -13 -23 -7 -23 9 0 6 5 7 10 4 14 -9 12 19 -2 34 -7 7 -8 12 -3 11 33
-7 42 4 25 30 -8 12 -11 13 -19 1 -5 -7 -11 -9 -14 -4 -8 13 21 53 38 53 8 0
23 -9 34 -21 15 -16 17 -27 10 -51 -4 -16 -13 -36 -20 -44 -7 -8 -10 -17 -7
-19 8 -8 39 6 33 15 -2 4 2 16 10 26 21 27 18 46 -10 77 -33 35 -87 38 -109 5z
m5 -95 c13 -16 12 -17 -3 -4 -10 7 -18 15 -18 17 0 8 8 3 21 -13z m123 -76 c8
-13 6 -21 -7 -34 -15 -15 -17 -15 -17 -1 0 8 -7 21 -15 28 -13 11 -13 15 -3
21 17 11 29 7 42 -14z m-52 -19 c-9 -9 -8 -16 5 -30 9 -10 22 -18 29 -18 8 0
20 -13 29 -30 22 -42 18 -49 -9 -17 -13 15 -27 27 -32 28 -5 0 -20 14 -33 31
-20 24 -22 31 -10 39 20 13 35 11 21 -3z"/>
<path d="M2727 1444 c-20 -11 -27 -21 -24 -34 3 -11 0 -21 -7 -24 -7 -3 -5 -9
6 -16 9 -6 15 -16 13 -23 -2 -6 12 -25 33 -40 l37 -29 3 23 c2 12 10 28 17 36
16 16 9 43 -11 43 -21 0 -17 18 7 30 22 12 54 -4 43 -21 -3 -5 -1 -17 5 -26 7
-14 3 -26 -17 -53 l-27 -35 27 18 c29 18 73 24 63 7 -3 -5 -16 -10 -28 -10
-13 0 -31 -9 -40 -21 -15 -17 -21 -19 -34 -7 -15 11 -16 11 -9 -7 4 -11 8 -24
9 -30 1 -5 6 -13 11 -17 5 -3 -2 -21 -16 -40 -27 -35 -61 -45 -88 -25 -8 6 -6
2 4 -11 15 -17 22 -19 33 -10 12 9 14 4 11 -35 -3 -52 -9 -58 -23 -25 -14 33
-57 51 -97 40 -18 -4 -33 -13 -33 -19 0 -6 -3 -15 -7 -19 -11 -10 -10 -54 1
-54 5 0 14 7 21 15 17 21 25 19 38 -10 12 -26 4 -33 -15 -14 -5 5 -22 7 -37 3
-23 -5 -25 -9 -14 -22 11 -13 10 -15 -4 -9 -16 6 -18 -9 -8 -58 5 -24 -1 -27
-15 -9 -8 10 -15 28 -15 38 0 31 -20 5 -30 -39 -5 -21 -5 -48 0 -60 10 -26 39
-40 54 -25 5 5 14 10 19 10 5 0 -3 -10 -19 -22 -40 -31 -53 -49 -54 -74 0 -22
34 -64 52 -64 7 0 2 9 -10 20 -12 12 -22 31 -21 43 l0 22 9 -23 c26 -63 132
-42 116 23 -8 32 -46 35 -46 4 0 -14 5 -19 14 -16 10 4 13 1 9 -9 -6 -17 -43
-19 -44 -1 -4 40 6 65 34 91 26 25 28 29 9 24 -11 -3 -26 0 -32 7 -14 17 43
15 59 -2 9 -10 4 -16 -21 -30 -27 -14 -30 -18 -14 -21 10 -2 22 1 25 7 5 7 19
-1 39 -22 24 -25 42 -34 72 -35 47 -3 51 8 13 38 -23 18 -27 28 -26 71 0 28
-3 45 -7 38 -4 -6 -12 -9 -18 -5 -7 4 -1 17 14 33 14 15 21 29 15 31 -6 2 -11
8 -11 13 0 6 4 8 9 5 4 -3 13 6 20 21 9 20 9 28 0 34 -9 5 -8 13 5 33 9 14 21
26 26 26 5 0 7 6 4 14 -7 18 30 10 47 -10 14 -17 -5 -45 -30 -43 -13 1 -13 2
2 6 19 5 22 18 7 28 -15 9 -40 -14 -40 -36 0 -45 74 -41 86 5 13 53 -40 91
-93 67 -23 -11 -25 -10 -14 3 19 22 47 29 72 16 18 -10 20 -9 17 7 -3 12 -11
17 -26 16 -12 -2 -22 1 -22 6 0 17 26 30 48 24 13 -3 22 -1 22 6 0 7 4 10 9 7
4 -3 16 3 26 14 13 14 23 17 39 10 13 -5 29 -4 37 1 8 5 9 9 3 9 -6 0 -28 16
-48 36 -31 30 -33 35 -14 29 22 -6 22 -6 4 9 -11 9 -30 16 -43 16 -20 0 -22 3
-13 19 15 29 12 58 -7 65 -10 4 -34 15 -53 26 -42 23 -57 24 -93 4z m28 -90
c9 -15 12 -23 6 -20 -11 7 -35 46 -28 46 3 0 12 -12 22 -26z m-74 -455 c-19
-18 -20 -17 -34 5 -13 19 -13 23 -2 23 8 0 12 -4 9 -9 -3 -4 4 -8 15 -8 18 0
19 2 6 27 -8 15 -11 31 -8 36 3 5 12 -5 20 -23 12 -30 12 -35 -6 -51z m-56 50
c-4 -5 -14 -8 -23 -8 -15 1 -15 2 1 6 9 2 14 9 11 15 -4 7 -2 8 5 4 6 -4 9
-12 6 -17z m5 -43 c0 -2 -7 -7 -16 -10 -8 -3 -12 -2 -9 4 6 10 25 14 25 6z"/>
<path d="M97 1293 c-12 -11 -8 -23 6 -17 8 3 33 -11 56 -31 24 -19 47 -35 52
-35 5 0 9 -5 9 -11 0 -5 -5 -7 -11 -4 -16 10 -61 14 -88 8 -23 -6 -23 -7 12
-25 21 -10 37 -24 37 -31 0 -8 21 -24 46 -36 38 -19 48 -21 55 -10 7 11 11 10
23 -6 9 -11 16 -23 16 -27 0 -14 20 -8 40 12 11 11 20 32 20 47 l0 27 -21 -22
c-11 -13 -21 -32 -22 -43 -1 -19 -2 -19 -19 3 -10 13 -16 28 -14 34 5 13 -27
65 -40 66 -18 2 -76 54 -90 81 -14 26 -51 37 -67 20z m138 -133 c3 -6 -1 -7
-9 -4 -18 7 -21 14 -7 14 6 0 13 -4 16 -10z m40 -28 c-3 -3 -11 0 -18 7 -9 10
-8 11 6 5 10 -3 15 -9 12 -12z"/>
<path d="M2740 1260 c0 -5 -11 -10 -25 -10 -33 0 -51 -34 -35 -66 17 -30 40
-38 58 -20 17 17 9 46 -12 46 -10 0 -13 -6 -9 -17 6 -16 5 -16 -10 -4 -13 10
-14 18 -6 32 12 23 32 24 49 4 7 -8 9 -15 4 -15 -4 0 -3 -5 4 -12 8 -8 8 -17
1 -30 -6 -11 -8 -22 -6 -25 3 -3 12 8 20 24 13 25 13 32 -1 66 -16 35 -32 49
-32 27z"/>
<path d="M196 1071 c-3 -5 9 -9 28 -9 19 0 42 -5 53 -11 16 -10 15 -11 -7 -6
-35 8 -77 -9 -85 -35 -8 -27 19 -70 44 -70 28 0 45 24 27 39 -10 8 -16 9 -21
1 -9 -15 -25 -12 -25 4 0 24 20 29 48 15 37 -19 51 -39 52 -71 0 -22 4 -25 22
-20 13 3 19 1 15 -6 -19 -29 -62 13 -49 47 4 10 1 12 -7 6 -7 -4 -11 -18 -8
-31 3 -18 1 -22 -8 -14 -6 5 -15 7 -19 3 -4 -4 -18 -9 -32 -11 -25 -3 -74 -46
-74 -63 0 -14 44 -10 64 4 16 12 22 11 42 -8 17 -15 32 -20 54 -17 20 3 30 0
30 -9 0 -19 30 -48 45 -43 7 3 16 1 20 -5 4 -7 0 -8 -12 -4 -17 7 -17 6 -2
-17 9 -14 26 -26 39 -26 24 -1 40 -19 40 -46 0 -9 6 -18 13 -21 7 -2 0 -10
-16 -17 -24 -12 -30 -11 -44 3 -14 14 -15 19 -4 29 10 11 12 10 9 -2 -2 -8 4
-15 12 -15 23 0 24 32 1 45 -27 14 -61 -3 -61 -30 0 -26 34 -60 60 -60 12 0
32 11 46 25 34 34 28 73 -14 96 -29 15 -30 17 -12 22 12 3 18 1 14 -5 -11 -18
49 1 71 22 30 29 28 60 -6 92 -16 16 -34 26 -38 23 -5 -2 -12 7 -15 21 -5 20
-11 24 -27 19 -13 -4 -19 -2 -17 7 2 7 -4 12 -14 10 -9 -1 -20 3 -24 9 -5 9 4
11 34 7 38 -6 40 -5 29 13 -6 10 -15 19 -19 19 -3 0 -13 6 -20 14 -24 23 -73
29 -92 11 -15 -15 -17 -14 -22 15 -4 17 -16 37 -28 45 -23 17 -82 20 -90 6z
m184 -146 c9 -10 9 -15 1 -15 -6 0 -11 5 -11 11 0 6 -9 9 -20 6 -11 -3 -23 -1
-26 4 -9 15 43 10 56 -6z m48 -62 c-6 -7 -17 -13 -25 -13 -8 0 -11 -5 -8 -10
4 -6 10 -8 15 -5 5 3 12 0 16 -6 5 -9 -2 -10 -24 -6 -21 4 -32 3 -32 -5 0 -6
-3 -8 -7 -4 -5 4 -7 8 -5 9 2 1 -1 15 -7 30 -9 22 -8 28 1 24 7 -2 12 -11 10
-21 -4 -20 1 -20 36 2 17 10 27 23 25 32 -4 13 -3 13 6 0 7 -10 6 -18 -1 -27z
m78 -18 c9 -8 14 -15 12 -16 -22 -7 -77 -6 -73 2 4 5 13 9 21 9 8 0 14 5 14
10 0 14 9 12 26 -5z"/>
<path d="M2860 1001 c0 -5 -10 -13 -22 -17 -67 -21 -93 -78 -38 -82 21 -2 32
4 41 20 7 13 15 25 19 28 12 9 21 60 10 60 -5 0 -10 -4 -10 -9z"/>
<path d="M2415 777 c-18 -11 -15 -13 25 -17 l45 -5 -35 -32 c-22 -21 -34 -42
-35 -59 0 -15 -5 -29 -12 -31 -20 -7 5 77 30 98 12 10 18 18 14 19 -19 0 -67
-32 -86 -59 -12 -16 -34 -31 -50 -34 -40 -8 -69 -52 -53 -78 7 -10 8 -19 3
-19 -6 0 -13 5 -16 10 -4 6 -11 7 -17 4 -6 -4 -23 -8 -37 -10 -14 -1 -29 -2
-34 -3 -4 -1 -15 -17 -24 -36 -13 -28 -14 -39 -5 -60 14 -30 50 -46 75 -33 11
6 17 5 17 -2 0 -6 5 -8 10 -5 6 4 13 -7 16 -25 8 -36 24 -50 24 -21 0 12 7 21
15 21 15 0 20 27 17 86 -2 27 2 33 25 39 15 3 38 18 51 33 13 15 20 20 16 12
-4 -8 -13 -23 -21 -32 -19 -22 -1 -58 29 -58 20 0 20 1 5 13 -16 11 -16 16 2
77 11 36 20 57 20 46 1 -21 39 -86 50 -86 4 0 5 15 3 33 -2 20 2 40 10 48 19
20 17 88 -3 103 -15 10 -15 14 -3 31 27 36 -25 60 -71 32z m-30 -104 c-17 -48
-26 -77 -26 -83 -2 -25 -49 -33 -49 -8 0 5 4 7 9 4 14 -9 33 21 29 46 -2 18
34 78 48 78 1 0 -4 -17 -11 -37z m-61 -51 c-6 -4 -17 -18 -24 -31 -12 -23 -13
-24 -26 -6 -18 24 -1 45 35 45 14 0 21 -4 15 -8z m80 -17 c-4 -8 -8 -15 -10
-15 -2 0 -4 7 -4 15 0 8 4 15 10 15 5 0 7 -7 4 -15z m-144 -65 c0 -5 7 -10 16
-10 8 0 12 -5 9 -11 -4 -6 -13 -8 -21 -5 -7 3 -18 -3 -23 -12 -9 -16 -11 -16
-24 2 -14 19 -15 19 -26 -2 -9 -17 -8 -23 5 -30 14 -8 12 -10 -10 -14 -24 -5
-56 12 -56 28 0 16 24 46 43 54 30 12 87 12 87 0z m-29 -83 c-10 -9 -11 -8 -5
6 3 10 9 15 12 12 3 -3 0 -11 -7 -18z"/>
<path d="M290 765 c-18 -21 -6 -56 33 -93 l33 -32 -2 42 c-2 24 -3 48 -3 55
-1 13 -29 43 -40 43 -5 0 -14 -7 -21 -15z"/>
<path d="M533 700 c-3 -11 -8 -18 -12 -15 -4 2 -5 -10 -3 -27 4 -24 -1 -35
-18 -48 -15 -11 -19 -20 -12 -24 6 -4 20 2 31 13 19 19 21 19 30 4 6 -12 3
-21 -13 -34 -11 -10 -16 -18 -11 -19 16 0 11 -54 -8 -83 l-17 -27 32 6 c84 15
106 42 91 115 l-6 30 33 -13 c18 -8 38 -23 44 -33 17 -31 29 -35 47 -19 15 13
17 13 23 -1 3 -9 6 -23 6 -30 0 -17 -32 -29 -40 -14 -4 6 -10 10 -14 10 -27
-4 -38 4 -56 37 l-20 37 5 -33 c4 -26 0 -38 -20 -58 -36 -36 -22 -44 14 -10
28 27 29 27 36 7 7 -23 38 -36 57 -24 7 4 19 8 26 9 8 2 22 10 31 18 10 9 22
16 28 16 13 0 23 24 23 56 0 14 -10 30 -26 40 -29 19 -109 23 -125 7 -7 -7
-22 -8 -39 -3 -16 5 -31 6 -34 3 -3 -3 -12 0 -21 7 -9 7 -18 10 -22 7 -3 -4
-12 1 -19 11 -19 25 -17 38 4 19 20 -18 121 -32 103 -14 -7 7 -7 14 0 23 26
32 -25 79 -67 63 -31 -11 -37 -25 -19 -42 21 -21 19 -30 -4 -18 -28 15 -35 43
-15 58 17 12 17 13 0 13 -10 0 -20 -9 -23 -20z m114 -26 c4 -10 -1 -22 -12
-30 -21 -16 -41 -8 -26 10 7 9 7 16 -1 24 -9 9 -7 12 10 12 13 0 25 -7 29 -16z"/>
<path d="M862 500 c-12 -5 -27 -22 -33 -37 -9 -24 -7 -31 16 -50 14 -13 21
-23 15 -23 -6 0 -9 -4 -6 -9 3 -4 -6 -19 -19 -31 -27 -25 -35 -51 -10 -30 9 7
25 10 41 6 15 -4 32 -2 40 5 8 6 14 8 14 4 0 -3 12 3 26 14 l26 21 31 -22 c29
-21 29 -22 8 -29 -12 -5 -21 -17 -21 -29 0 -21 16 -28 22 -9 2 6 26 17 53 24
34 9 49 17 47 27 -4 23 96 52 131 39 18 -7 27 -7 27 -1 0 15 -50 32 -64 22 -6
-4 -18 -8 -26 -7 -8 1 -30 -4 -47 -11 -18 -7 -35 -9 -37 -5 -9 14 41 34 73 29
17 -3 31 -1 31 4 0 7 -30 12 -57 9 -6 -1 -23 10 -36 23 -22 22 -30 24 -58 16
-18 -5 -36 -15 -41 -22 -7 -12 -12 -4 -9 14 0 3 -12 20 -26 37 -29 33 -65 39
-111 21z m68 -15 c29 -15 70 -75 51 -75 -6 0 -8 -8 -4 -17 6 -16 4 -16 -15 1
-12 10 -28 16 -37 12 -13 -4 -14 -2 -5 14 5 10 10 22 10 25 0 12 -44 0 -48
-14 -3 -9 0 -11 8 -6 9 6 11 4 6 -4 -11 -17 -46 15 -46 41 0 15 22 32 48 37 2
1 16 -6 32 -14z m158 -65 c2 -11 -6 -15 -25 -14 -28 1 -33 4 -33 25 0 16 54 6
58 -11z m-8 -51 c0 -5 -9 -9 -20 -9 -11 0 -20 6 -20 14 0 9 7 12 20 9 11 -3
20 -9 20 -14z m15 -39 c-3 -5 -12 -10 -18 -10 -7 0 -6 4 3 10 19 12 23 12 15
0z"/>
<path d="M2024 496 c-10 -8 -24 -12 -31 -9 -7 3 -13 -2 -13 -11 0 -9 -7 -16
-16 -16 -8 0 -13 -4 -10 -8 3 -5 1 -25 -5 -45 -13 -48 -81 -107 -112 -98 -21
6 -21 6 4 9 15 2 32 14 43 32 9 17 23 30 29 30 7 0 2 6 -9 13 -12 6 -30 17
-41 24 -15 9 -25 9 -43 0 -36 -19 -48 -44 -28 -63 19 -19 58 -11 58 12 0 11
-6 13 -20 9 -26 -8 -26 11 -1 25 15 7 24 6 36 -6 15 -15 14 -18 -6 -40 -12
-13 -28 -24 -36 -24 -7 0 -13 -4 -13 -10 0 -5 -5 -10 -11 -10 -5 0 -7 5 -4 10
3 6 -1 10 -9 10 -9 0 -16 8 -16 17 0 12 -3 14 -11 6 -8 -8 -5 -17 10 -32 12
-12 25 -21 29 -21 17 0 44 -39 39 -55 -4 -8 -2 -15 4 -15 16 0 22 29 10 44 -9
11 -7 15 8 19 23 6 31 0 31 -22 0 -17 47 -44 61 -35 4 2 15 -9 24 -26 8 -16
20 -30 26 -30 6 0 7 4 4 10 -8 13 24 72 35 65 6 -4 10 5 10 19 0 14 -4 28 -10
31 -17 11 -11 20 15 21 48 3 52 9 54 76 1 61 0 64 -33 85 -29 19 -36 20 -52 9z
m-23 -59 c-10 -9 -11 -8 -5 6 3 10 9 15 12 12 3 -3 0 -11 -7 -18z m87 -43 c-2
-8 -6 -15 -10 -15 -5 1 -17 -8 -29 -20 -16 -16 -29 -20 -51 -15 -16 3 -27 2
-24 -3 8 -13 -31 -20 -43 -8 -7 7 -1 17 21 34 19 13 36 19 41 14 15 -15 49 0
44 20 -3 10 0 20 7 22 18 7 48 -13 44 -29z m-76 -81 c29 -26 22 -47 -7 -21
-24 21 -32 38 -18 38 3 0 15 -7 25 -17z"/>
<path d="M1276 383 c21 -51 31 -59 39 -33 5 15 0 29 -16 46 -32 34 -40 30 -23
-13z"/>
<path d="M1170 349 c0 -6 -6 -9 -13 -6 -8 3 -20 1 -28 -5 -11 -8 -9 -8 5 -4
22 7 23 9 -36 -58 -31 -34 -22 -46 19 -25 21 11 44 17 51 14 7 -3 23 2 35 10
12 8 25 13 30 12 4 -1 16 12 27 30 13 22 15 30 6 27 -8 -3 -17 -1 -21 5 -8 14
-75 14 -75 0z m20 -29 c0 -5 -5 -10 -11 -10 -5 0 -7 5 -4 10 3 6 8 10 11 10 2
0 4 -4 4 -10z"/>
<path d="M1270 298 c-11 -12 -20 -33 -19 -47 l0 -26 10 25 c5 14 22 35 37 47
21 18 23 23 10 23 -10 0 -26 -10 -38 -22z"/>
<path d="M1583 175 c32 -36 53 -41 116 -29 34 7 43 24 12 24 -11 0 -27 8 -37
18 -10 9 -20 16 -23 15 -3 -2 -14 0 -24 3 -10 3 -24 1 -32 -6 -9 -7 -15 -8
-20 0 -3 5 -10 10 -15 10 -4 0 6 -16 23 -35z"/>
</g>
</svg>
